<svg xmlns="http://www.w3.org/2000/svg" xmlns:xlink="http://www.w3.org/1999/xlink" width="200" zoomAndPan="magnify" viewBox="0 0 150 37.5" height="50" preserveAspectRatio="xMidYMid meet" version="1.0"><defs><g/><clipPath id="7ee8635257"><path d="M 1 0 L 148 0 L 148 37.007812 L 1 37.007812 Z M 1 0 " clip-rule="nonzero"/></clipPath><clipPath id="3ded2203a1"><path d="M 0.933594 0 L 144 0 L 144 37.007812 L 0.933594 37.007812 Z M 0.933594 0 " clip-rule="nonzero"/></clipPath><clipPath id="1fbf05d8e1"><rect x="0" width="144" y="0" height="38"/></clipPath><clipPath id="937079c0cb"><path d="M 142.625 25.277344 L 146 25.277344 L 146 28.792969 L 142.625 28.792969 Z M 142.625 25.277344 " clip-rule="nonzero"/></clipPath><clipPath id="f2234ba49a"><rect x="0" width="147" y="0" height="38"/></clipPath></defs><g clip-path="url(#7ee8635257)"><g transform="matrix(1, 0, 0, 1, 1, -0.000000000000001478)"><g clip-path="url(#f2234ba49a)"><g clip-path="url(#3ded2203a1)"><g transform="matrix(1, 0, 0, 1, 0.000000000000000222, -0.000000000000001478)"><g clip-path="url(#1fbf05d8e1)"><g fill="#000000" fill-opacity="1"><g transform="translate(1.082923, 29.361839)"><g><path d="M 11.28125 -17.171875 C 9.644531 -17.171875 8.378906 -16.554688 7.484375 -15.328125 C 6.585938 -14.097656 6.140625 -12.382812 6.140625 -10.1875 C 6.140625 -5.625 7.851562 -3.34375 11.28125 -3.34375 C 12.726562 -3.34375 14.472656 -3.703125 16.515625 -4.421875 L 16.515625 -0.765625 C 14.835938 -0.0664062 12.957031 0.28125 10.875 0.28125 C 7.894531 0.28125 5.613281 -0.617188 4.03125 -2.421875 C 2.457031 -4.234375 1.671875 -6.832031 1.671875 -10.21875 C 1.671875 -12.351562 2.054688 -14.222656 2.828125 -15.828125 C 3.609375 -17.429688 4.722656 -18.660156 6.171875 -19.515625 C 7.628906 -20.367188 9.332031 -20.796875 11.28125 -20.796875 C 13.28125 -20.796875 15.285156 -20.3125 17.296875 -19.34375 L 15.890625 -15.8125 C 15.117188 -16.175781 14.34375 -16.492188 13.5625 -16.765625 C 12.789062 -17.035156 12.03125 -17.171875 11.28125 -17.171875 Z M 11.28125 -17.171875 "/></g></g></g><g fill="#000000" fill-opacity="1"><g transform="translate(19.377073, 29.361839)"><g><path d="M 5.65625 -7.859375 C 5.65625 -6.304688 5.910156 -5.132812 6.421875 -4.34375 C 6.929688 -3.550781 7.757812 -3.15625 8.90625 -3.15625 C 10.039062 -3.15625 10.859375 -3.550781 11.359375 -4.34375 C 11.859375 -5.132812 12.109375 -6.304688 12.109375 -7.859375 C 12.109375 -9.410156 11.851562 -10.570312 11.34375 -11.34375 C 10.84375 -12.125 10.019531 -12.515625 8.875 -12.515625 C 7.738281 -12.515625 6.914062 -12.128906 6.40625 -11.359375 C 5.90625 -10.585938 5.65625 -9.421875 5.65625 -7.859375 Z M 16.484375 -7.859375 C 16.484375 -5.304688 15.8125 -3.3125 14.46875 -1.875 C 13.125 -0.4375 11.25 0.28125 8.84375 0.28125 C 7.34375 0.28125 6.015625 -0.046875 4.859375 -0.703125 C 3.710938 -1.367188 2.832031 -2.316406 2.21875 -3.546875 C 1.601562 -4.785156 1.296875 -6.222656 1.296875 -7.859375 C 1.296875 -10.421875 1.960938 -12.410156 3.296875 -13.828125 C 4.628906 -15.253906 6.507812 -15.96875 8.9375 -15.96875 C 10.4375 -15.96875 11.757812 -15.640625 12.90625 -14.984375 C 14.0625 -14.335938 14.945312 -13.398438 15.5625 -12.171875 C 16.175781 -10.941406 16.484375 -9.503906 16.484375 -7.859375 Z M 16.484375 -7.859375 "/></g></g></g><g fill="#000000" fill-opacity="1"><g transform="translate(37.152533, 29.361839)"><g><path d="M 7.203125 0.28125 C 5.359375 0.28125 3.910156 -0.429688 2.859375 -1.859375 C 1.816406 -3.296875 1.296875 -5.28125 1.296875 -7.8125 C 1.296875 -10.382812 1.828125 -12.382812 2.890625 -13.8125 C 3.960938 -15.25 5.4375 -15.96875 7.3125 -15.96875 C 9.289062 -15.96875 10.796875 -15.203125 11.828125 -13.671875 L 11.96875 -13.671875 C 11.757812 -14.835938 11.65625 -15.878906 11.65625 -16.796875 L 11.65625 -21.8125 L 15.9375 -21.8125 L 15.9375 0 L 12.65625 0 L 11.828125 -2.03125 L 11.65625 -2.03125 C 10.675781 -0.488281 9.191406 0.28125 7.203125 0.28125 Z M 8.703125 -3.125 C 9.796875 -3.125 10.597656 -3.441406 11.109375 -4.078125 C 11.617188 -4.710938 11.898438 -5.789062 11.953125 -7.3125 L 11.953125 -7.78125 C 11.953125 -9.46875 11.691406 -10.675781 11.171875 -11.40625 C 10.648438 -12.132812 9.804688 -12.5 8.640625 -12.5 C 7.679688 -12.5 6.9375 -12.09375 6.40625 -11.28125 C 5.882812 -10.46875 5.625 -9.289062 5.625 -7.75 C 5.625 -6.207031 5.890625 -5.050781 6.421875 -4.28125 C 6.953125 -3.507812 7.710938 -3.125 8.703125 -3.125 Z M 8.703125 -3.125 "/></g></g></g><g fill="#000000" fill-opacity="1"><g transform="translate(55.32051, 29.361839)"><g><path d="M 8.734375 -12.921875 C 7.828125 -12.921875 7.113281 -12.632812 6.59375 -12.0625 C 6.082031 -11.488281 5.789062 -10.675781 5.71875 -9.625 L 11.71875 -9.625 C 11.695312 -10.675781 11.421875 -11.488281 10.890625 -12.0625 C 10.359375 -12.632812 9.640625 -12.921875 8.734375 -12.921875 Z M 9.34375 0.28125 C 6.8125 0.28125 4.835938 -0.410156 3.421875 -1.796875 C 2.003906 -3.191406 1.296875 -5.171875 1.296875 -7.734375 C 1.296875 -10.359375 1.953125 -12.382812 3.265625 -13.8125 C 4.578125 -15.25 6.390625 -15.96875 8.703125 -15.96875 C 10.921875 -15.96875 12.644531 -15.335938 13.875 -14.078125 C 15.113281 -12.816406 15.734375 -11.070312 15.734375 -8.84375 L 15.734375 -6.765625 L 5.625 -6.765625 C 5.664062 -5.554688 6.023438 -4.609375 6.703125 -3.921875 C 7.378906 -3.242188 8.320312 -2.90625 9.53125 -2.90625 C 10.476562 -2.90625 11.367188 -3 12.203125 -3.1875 C 13.046875 -3.382812 13.925781 -3.703125 14.84375 -4.140625 L 14.84375 -0.828125 C 14.101562 -0.453125 13.304688 -0.175781 12.453125 0 C 11.597656 0.1875 10.5625 0.28125 9.34375 0.28125 Z M 9.34375 0.28125 "/></g></g></g><g fill="#000000" fill-opacity="1"><g transform="translate(72.282897, 29.361839)"><g><path d="M 16.71875 0 L 12.4375 0 L 12.4375 -9.15625 C 12.4375 -10.289062 12.234375 -11.140625 11.828125 -11.703125 C 11.429688 -12.265625 10.796875 -12.546875 9.921875 -12.546875 C 8.722656 -12.546875 7.851562 -12.144531 7.3125 -11.34375 C 6.78125 -10.550781 6.515625 -9.226562 6.515625 -7.375 L 6.515625 0 L 2.25 0 L 2.25 -15.671875 L 5.515625 -15.671875 L 6.078125 -13.671875 L 6.328125 -13.671875 C 6.804688 -14.429688 7.460938 -15.003906 8.296875 -15.390625 C 9.128906 -15.773438 10.078125 -15.96875 11.140625 -15.96875 C 12.960938 -15.96875 14.347656 -15.472656 15.296875 -14.484375 C 16.242188 -13.503906 16.71875 -12.082031 16.71875 -10.21875 Z M 16.71875 0 "/></g></g></g><g fill="#000000" fill-opacity="1"><g transform="translate(91.1518, 29.361839)"><g><path d="M 5.65625 -7.859375 C 5.65625 -6.304688 5.910156 -5.132812 6.421875 -4.34375 C 6.929688 -3.550781 7.757812 -3.15625 8.90625 -3.15625 C 10.039062 -3.15625 10.859375 -3.550781 11.359375 -4.34375 C 11.859375 -5.132812 12.109375 -6.304688 12.109375 -7.859375 C 12.109375 -9.410156 11.851562 -10.570312 11.34375 -11.34375 C 10.84375 -12.125 10.019531 -12.515625 8.875 -12.515625 C 7.738281 -12.515625 6.914062 -12.128906 6.40625 -11.359375 C 5.90625 -10.585938 5.65625 -9.421875 5.65625 -7.859375 Z M 16.484375 -7.859375 C 16.484375 -5.304688 15.8125 -3.3125 14.46875 -1.875 C 13.125 -0.4375 11.25 0.28125 8.84375 0.28125 C 7.34375 0.28125 6.015625 -0.046875 4.859375 -0.703125 C 3.710938 -1.367188 2.832031 -2.316406 2.21875 -3.546875 C 1.601562 -4.785156 1.296875 -6.222656 1.296875 -7.859375 C 1.296875 -10.421875 1.960938 -12.410156 3.296875 -13.828125 C 4.628906 -15.253906 6.507812 -15.96875 8.9375 -15.96875 C 10.4375 -15.96875 11.757812 -15.640625 12.90625 -14.984375 C 14.0625 -14.335938 14.945312 -13.398438 15.5625 -12.171875 C 16.175781 -10.941406 16.484375 -9.503906 16.484375 -7.859375 Z M 16.484375 -7.859375 "/></g></g></g><g fill="#000000" fill-opacity="1"><g transform="translate(108.92726, 29.361839)"><g><path d="M 5.96875 0 L 0 -15.671875 L 4.46875 -15.671875 L 7.5 -6.75 C 7.832031 -5.613281 8.046875 -4.539062 8.140625 -3.53125 L 8.21875 -3.53125 C 8.257812 -4.425781 8.46875 -5.5 8.84375 -6.75 L 11.859375 -15.671875 L 16.34375 -15.671875 L 10.359375 0 Z M 5.96875 0 "/></g></g></g><g fill="#000000" fill-opacity="1"><g transform="translate(125.25882, 29.361839)"><g><path d="M 12.203125 0 L 11.375 -2.125 L 11.265625 -2.125 C 10.546875 -1.21875 9.800781 -0.585938 9.03125 -0.234375 C 8.269531 0.109375 7.28125 0.28125 6.0625 0.28125 C 4.550781 0.28125 3.363281 -0.144531 2.5 -1 C 1.632812 -1.863281 1.203125 -3.09375 1.203125 -4.6875 C 1.203125 -6.351562 1.785156 -7.578125 2.953125 -8.359375 C 4.117188 -9.148438 5.875 -9.585938 8.21875 -9.671875 L 10.9375 -9.765625 L 10.9375 -10.453125 C 10.9375 -12.035156 10.125 -12.828125 8.5 -12.828125 C 7.25 -12.828125 5.773438 -12.445312 4.078125 -11.6875 L 2.671875 -14.578125 C 4.472656 -15.523438 6.472656 -16 8.671875 -16 C 10.773438 -16 12.382812 -15.539062 13.5 -14.625 C 14.625 -13.707031 15.1875 -12.316406 15.1875 -10.453125 L 15.1875 0 Z M 10.9375 -7.265625 L 9.28125 -7.203125 C 8.039062 -7.171875 7.113281 -6.945312 6.5 -6.53125 C 5.894531 -6.125 5.59375 -5.5 5.59375 -4.65625 C 5.59375 -3.445312 6.285156 -2.84375 7.671875 -2.84375 C 8.660156 -2.84375 9.453125 -3.128906 10.046875 -3.703125 C 10.640625 -4.273438 10.9375 -5.03125 10.9375 -5.96875 Z M 10.9375 -7.265625 "/></g></g></g></g></g></g><g clip-path="url(#937079c0cb)"><path fill="#000000" d="M 142.636719 25.289062 L 145.980469 25.289062 L 145.980469 28.636719 L 142.636719 28.636719 Z M 142.636719 25.289062 " fill-opacity="1" fill-rule="nonzero"/><path fill="#7ed957" d="M 142.625 25.277344 L 142.625 28.644531 L 145.992188 28.644531 L 145.992188 25.277344 Z M 145.96875 28.625 L 142.644531 28.625 L 142.644531 25.300781 L 145.96875 25.300781 Z M 145.96875 28.625 " fill-opacity="1" fill-rule="nonzero"/></g></g></g></g></svg>