<svg xmlns="http://www.w3.org/2000/svg" xmlns:xlink="http://www.w3.org/1999/xlink" width="200" zoomAndPan="magnify" viewBox="0 0 150 37.5" height="50" preserveAspectRatio="xMidYMid meet" version="1.0"><defs><g/><clipPath id="11f5b27955"><path d="M 1 0 L 148 0 L 148 37.007812 L 1 37.007812 Z M 1 0 " clip-rule="nonzero"/></clipPath><clipPath id="d312be39e6"><path d="M 0.933594 0 L 144 0 L 144 37.007812 L 0.933594 37.007812 Z M 0.933594 0 " clip-rule="nonzero"/></clipPath><clipPath id="6a9f04bd3b"><rect x="0" width="144" y="0" height="38"/></clipPath><clipPath id="ec628575a4"><path d="M 142.625 25.277344 L 146 25.277344 L 146 28.792969 L 142.625 28.792969 Z M 142.625 25.277344 " clip-rule="nonzero"/></clipPath><clipPath id="f10a21ed0b"><rect x="0" width="147" y="0" height="38"/></clipPath></defs><g clip-path="url(#11f5b27955)"><g transform="matrix(1, 0, 0, 1, 1, -0.000000000000001478)"><g clip-path="url(#f10a21ed0b)"><g clip-path="url(#d312be39e6)"><g transform="matrix(1, 0, 0, 1, 0.000000000000000222, -0.000000000000001478)"><g clip-path="url(#6a9f04bd3b)"><g fill="#fdfdfd" fill-opacity="1"><g transform="translate(1.106052, 28.80603)"><g><path d="M 11.28125 -17.171875 C 9.644531 -17.171875 8.378906 -16.554688 7.484375 -15.328125 C 6.585938 -14.097656 6.140625 -12.382812 6.140625 -10.1875 C 6.140625 -5.613281 7.851562 -3.328125 11.28125 -3.328125 C 12.71875 -3.328125 14.460938 -3.691406 16.515625 -4.421875 L 16.515625 -0.765625 C 14.828125 -0.0664062 12.945312 0.28125 10.875 0.28125 C 7.894531 0.28125 5.613281 -0.617188 4.03125 -2.421875 C 2.457031 -4.234375 1.671875 -6.832031 1.671875 -10.21875 C 1.671875 -12.34375 2.054688 -14.207031 2.828125 -15.8125 C 3.609375 -17.414062 4.722656 -18.644531 6.171875 -19.5 C 7.628906 -20.351562 9.332031 -20.78125 11.28125 -20.78125 C 13.269531 -20.78125 15.269531 -20.300781 17.28125 -19.34375 L 15.875 -15.8125 C 15.113281 -16.175781 14.34375 -16.492188 13.5625 -16.765625 C 12.789062 -17.035156 12.03125 -17.171875 11.28125 -17.171875 Z M 11.28125 -17.171875 "/></g></g></g><g fill="#fdfdfd" fill-opacity="1"><g transform="translate(19.395948, 28.80603)"><g><path d="M 5.640625 -7.859375 C 5.640625 -6.304688 5.894531 -5.132812 6.40625 -4.34375 C 6.914062 -3.550781 7.75 -3.15625 8.90625 -3.15625 C 10.039062 -3.15625 10.859375 -3.546875 11.359375 -4.328125 C 11.859375 -5.117188 12.109375 -6.296875 12.109375 -7.859375 C 12.109375 -9.410156 11.851562 -10.570312 11.34375 -11.34375 C 10.84375 -12.125 10.019531 -12.515625 8.875 -12.515625 C 7.726562 -12.515625 6.898438 -12.128906 6.390625 -11.359375 C 5.890625 -10.585938 5.640625 -9.421875 5.640625 -7.859375 Z M 16.484375 -7.859375 C 16.484375 -5.304688 15.8125 -3.3125 14.46875 -1.875 C 13.125 -0.4375 11.25 0.28125 8.84375 0.28125 C 7.34375 0.28125 6.015625 -0.046875 4.859375 -0.703125 C 3.710938 -1.367188 2.832031 -2.316406 2.21875 -3.546875 C 1.601562 -4.773438 1.296875 -6.210938 1.296875 -7.859375 C 1.296875 -10.421875 1.960938 -12.410156 3.296875 -13.828125 C 4.628906 -15.253906 6.503906 -15.96875 8.921875 -15.96875 C 10.429688 -15.96875 11.757812 -15.640625 12.90625 -14.984375 C 14.050781 -14.328125 14.929688 -13.382812 15.546875 -12.15625 C 16.171875 -10.9375 16.484375 -9.503906 16.484375 -7.859375 Z M 16.484375 -7.859375 "/></g></g></g><g fill="#fdfdfd" fill-opacity="1"><g transform="translate(37.167281, 28.80603)"><g><path d="M 7.203125 0.28125 C 5.359375 0.28125 3.910156 -0.429688 2.859375 -1.859375 C 1.816406 -3.296875 1.296875 -5.28125 1.296875 -7.8125 C 1.296875 -10.375 1.828125 -12.375 2.890625 -13.8125 C 3.960938 -15.25 5.4375 -15.96875 7.3125 -15.96875 C 9.28125 -15.96875 10.785156 -15.203125 11.828125 -13.671875 L 11.96875 -13.671875 C 11.75 -14.835938 11.640625 -15.878906 11.640625 -16.796875 L 11.640625 -21.8125 L 15.9375 -21.8125 L 15.9375 0 L 12.65625 0 L 11.828125 -2.03125 L 11.640625 -2.03125 C 10.671875 -0.488281 9.191406 0.28125 7.203125 0.28125 Z M 8.703125 -3.125 C 9.796875 -3.125 10.597656 -3.441406 11.109375 -4.078125 C 11.617188 -4.710938 11.894531 -5.789062 11.9375 -7.3125 L 11.9375 -7.78125 C 11.9375 -9.457031 11.675781 -10.660156 11.15625 -11.390625 C 10.644531 -12.117188 9.804688 -12.484375 8.640625 -12.484375 C 7.679688 -12.484375 6.9375 -12.078125 6.40625 -11.265625 C 5.882812 -10.460938 5.625 -9.289062 5.625 -7.75 C 5.625 -6.207031 5.890625 -5.050781 6.421875 -4.28125 C 6.953125 -3.507812 7.710938 -3.125 8.703125 -3.125 Z M 8.703125 -3.125 "/></g></g></g><g fill="#fdfdfd" fill-opacity="1"><g transform="translate(55.33104, 28.80603)"><g><path d="M 8.734375 -12.921875 C 7.828125 -12.921875 7.113281 -12.632812 6.59375 -12.0625 C 6.082031 -11.488281 5.789062 -10.671875 5.71875 -9.609375 L 11.71875 -9.609375 C 11.695312 -10.671875 11.421875 -11.488281 10.890625 -12.0625 C 10.359375 -12.632812 9.640625 -12.921875 8.734375 -12.921875 Z M 9.328125 0.28125 C 6.804688 0.28125 4.835938 -0.410156 3.421875 -1.796875 C 2.003906 -3.191406 1.296875 -5.164062 1.296875 -7.71875 C 1.296875 -10.34375 1.953125 -12.375 3.265625 -13.8125 C 4.578125 -15.25 6.390625 -15.96875 8.703125 -15.96875 C 10.921875 -15.96875 12.644531 -15.332031 13.875 -14.0625 C 15.101562 -12.800781 15.71875 -11.0625 15.71875 -8.84375 L 15.71875 -6.765625 L 5.625 -6.765625 C 5.664062 -5.554688 6.019531 -4.609375 6.6875 -3.921875 C 7.363281 -3.242188 8.3125 -2.90625 9.53125 -2.90625 C 10.476562 -2.90625 11.367188 -3 12.203125 -3.1875 C 13.046875 -3.382812 13.925781 -3.703125 14.84375 -4.140625 L 14.84375 -0.828125 C 14.09375 -0.453125 13.289062 -0.175781 12.4375 0 C 11.59375 0.1875 10.554688 0.28125 9.328125 0.28125 Z M 9.328125 0.28125 "/></g></g></g><g fill="#fdfdfd" fill-opacity="1"><g transform="translate(72.289488, 28.80603)"><g><path d="M 16.703125 0 L 12.4375 0 L 12.4375 -9.15625 C 12.4375 -10.28125 12.234375 -11.125 11.828125 -11.6875 C 11.421875 -12.257812 10.78125 -12.546875 9.90625 -12.546875 C 8.707031 -12.546875 7.84375 -12.144531 7.3125 -11.34375 C 6.78125 -10.539062 6.515625 -9.21875 6.515625 -7.375 L 6.515625 0 L 2.25 0 L 2.25 -15.671875 L 5.515625 -15.671875 L 6.078125 -13.671875 L 6.328125 -13.671875 C 6.796875 -14.421875 7.445312 -14.988281 8.28125 -15.375 C 9.125 -15.769531 10.078125 -15.96875 11.140625 -15.96875 C 12.960938 -15.96875 14.34375 -15.472656 15.28125 -14.484375 C 16.226562 -13.492188 16.703125 -12.070312 16.703125 -10.21875 Z M 16.703125 0 "/></g></g></g><g fill="#fdfdfd" fill-opacity="1"><g transform="translate(91.15401, 28.80603)"><g><path d="M 5.640625 -7.859375 C 5.640625 -6.304688 5.894531 -5.132812 6.40625 -4.34375 C 6.914062 -3.550781 7.75 -3.15625 8.90625 -3.15625 C 10.039062 -3.15625 10.859375 -3.546875 11.359375 -4.328125 C 11.859375 -5.117188 12.109375 -6.296875 12.109375 -7.859375 C 12.109375 -9.410156 11.851562 -10.570312 11.34375 -11.34375 C 10.84375 -12.125 10.019531 -12.515625 8.875 -12.515625 C 7.726562 -12.515625 6.898438 -12.128906 6.390625 -11.359375 C 5.890625 -10.585938 5.640625 -9.421875 5.640625 -7.859375 Z M 16.484375 -7.859375 C 16.484375 -5.304688 15.8125 -3.3125 14.46875 -1.875 C 13.125 -0.4375 11.25 0.28125 8.84375 0.28125 C 7.34375 0.28125 6.015625 -0.046875 4.859375 -0.703125 C 3.710938 -1.367188 2.832031 -2.316406 2.21875 -3.546875 C 1.601562 -4.773438 1.296875 -6.210938 1.296875 -7.859375 C 1.296875 -10.421875 1.960938 -12.410156 3.296875 -13.828125 C 4.628906 -15.253906 6.503906 -15.96875 8.921875 -15.96875 C 10.429688 -15.96875 11.757812 -15.640625 12.90625 -14.984375 C 14.050781 -14.328125 14.929688 -13.382812 15.546875 -12.15625 C 16.171875 -10.9375 16.484375 -9.503906 16.484375 -7.859375 Z M 16.484375 -7.859375 "/></g></g></g><g fill="#fdfdfd" fill-opacity="1"><g transform="translate(108.925343, 28.80603)"><g><path d="M 5.96875 0 L 0 -15.671875 L 4.46875 -15.671875 L 7.5 -6.734375 C 7.832031 -5.609375 8.039062 -4.539062 8.125 -3.53125 L 8.21875 -3.53125 C 8.257812 -4.425781 8.46875 -5.492188 8.84375 -6.734375 L 11.859375 -15.671875 L 16.328125 -15.671875 L 10.359375 0 Z M 5.96875 0 "/></g></g></g><g fill="#fdfdfd" fill-opacity="1"><g transform="translate(125.253105, 28.80603)"><g><path d="M 12.1875 0 L 11.359375 -2.125 L 11.25 -2.125 C 10.53125 -1.21875 9.789062 -0.585938 9.03125 -0.234375 C 8.269531 0.109375 7.273438 0.28125 6.046875 0.28125 C 4.546875 0.28125 3.363281 -0.144531 2.5 -1 C 1.632812 -1.863281 1.203125 -3.09375 1.203125 -4.6875 C 1.203125 -6.34375 1.78125 -7.566406 2.9375 -8.359375 C 4.101562 -9.148438 5.863281 -9.585938 8.21875 -9.671875 L 10.9375 -9.75 L 10.9375 -10.4375 C 10.9375 -12.03125 10.125 -12.828125 8.5 -12.828125 C 7.238281 -12.828125 5.765625 -12.445312 4.078125 -11.6875 L 2.65625 -14.578125 C 4.46875 -15.515625 6.46875 -15.984375 8.65625 -15.984375 C 10.757812 -15.984375 12.367188 -15.523438 13.484375 -14.609375 C 14.609375 -13.703125 15.171875 -12.3125 15.171875 -10.4375 L 15.171875 0 Z M 10.9375 -7.265625 L 9.28125 -7.203125 C 8.03125 -7.160156 7.101562 -6.9375 6.5 -6.53125 C 5.894531 -6.125 5.59375 -5.5 5.59375 -4.65625 C 5.59375 -3.445312 6.285156 -2.84375 7.671875 -2.84375 C 8.660156 -2.84375 9.453125 -3.128906 10.046875 -3.703125 C 10.640625 -4.273438 10.9375 -5.03125 10.9375 -5.96875 Z M 10.9375 -7.265625 "/></g></g></g></g></g></g><g clip-path="url(#ec628575a4)"><path fill="#7ed957" d="M 142.636719 25.289062 L 145.980469 25.289062 L 145.980469 28.636719 L 142.636719 28.636719 Z M 142.636719 25.289062 " fill-opacity="1" fill-rule="nonzero"/><path fill="#7ed957" d="M 142.625 25.277344 L 142.625 28.644531 L 145.992188 28.644531 L 145.992188 25.277344 Z M 145.96875 28.625 L 142.644531 28.625 L 142.644531 25.300781 L 145.96875 25.300781 Z M 145.96875 28.625 " fill-opacity="1" fill-rule="nonzero"/></g></g></g></g></svg>